# xmcd
#
# Track frame offsets: 
#        150
#        22716
#        42977
#        62589
#        84004
#        107771
#        127000
#        142147
#        164135
#        178554
#        192321
#        216578
#        235679
#        253908
#        288197
#        306774
#
# Disc length: 4408 seconds
#
# Revision: 0
# Processed by: cddbd v1.5.2PL0 Copyright (c) Steve Scherf et al.
# Submitted via: ExactAudioCopy v0.99pb4
#
DISCID=e6113610
DTITLE=Ilse DeLange - Live in Amsterdam
DYEAR=2007
DGENRE=Pop
TTITLE0=Don't You let Go Of Me
TTITLE1=Reach for the Light
TTITLE2=The Lonely One
TTITLE3=World of Hurt
TTITLE4=Livin' on Love
TTITLE5=I Love You
TTITLE6=Tapdancing ont the Highwire
TTITLE7=Flying Blind
TTITLE8=Sister Golden Hair
TTITLE9=I'd be Yours
TTITLE10=Ride the Wind to Me
TTITLE11=I Will Allways Love You
TTITLE12=The Great Escape
TTITLE13=I'm Not So Tough
TTITLE14=Was It Love
TTITLE15=The Valley
EXTD=
EXTT0=
EXTT1=
EXTT2=
EXTT3=
EXTT4=
EXTT5=
EXTT6=
EXTT7=
EXTT8=
EXTT9=
EXTT10=
EXTT11=
EXTT12=
EXTT13=
EXTT14=
EXTT15=
PLAYORDER=
